<svg id="svg" version="1.1" xmlns="http://www.w3.org/2000/svg" xmlns:xlink="http://www.w3.org/1999/xlink" width="400" height="400" viewBox="0, 0, 400,400"><g id="svgg"><path id="path0" d="M195.703 90.339 C 195.596 90.448,193.574 90.650,191.211 90.789 C 188.848 90.928,186.387 91.109,185.742 91.191 C 185.098 91.274,183.524 91.455,182.245 91.595 C 180.966 91.734,179.803 91.921,179.659 92.010 C 179.516 92.098,178.453 92.283,177.297 92.421 C 176.141 92.558,174.932 92.808,174.609 92.976 C 174.287 93.144,173.408 93.379,172.656 93.498 C 170.327 93.868,166.264 94.984,165.137 95.562 C 164.546 95.866,164.063 96.029,164.063 95.926 C 164.063 95.711,161.866 96.477,159.570 97.493 C 158.711 97.874,157.832 98.224,157.617 98.272 C 157.099 98.388,155.421 99.129,154.688 99.565 C 154.365 99.757,153.398 100.241,152.539 100.641 C 151.680 101.040,150.918 101.499,150.846 101.660 C 150.775 101.821,150.485 101.953,150.202 101.953 C 149.919 101.953,148.774 102.568,147.656 103.320 C 146.539 104.072,145.494 104.688,145.334 104.688 C 144.397 104.688,134.127 112.991,131.674 115.731 C 131.333 116.112,130.220 117.237,129.199 118.231 C 128.179 119.225,127.344 120.257,127.344 120.524 C 127.344 120.791,127.118 121.097,126.842 121.203 C 126.566 121.309,125.819 122.163,125.182 123.100 C 124.545 124.038,123.820 124.980,123.571 125.195 C 123.060 125.637,120.313 129.917,120.313 130.271 C 120.313 130.398,119.967 130.872,119.545 131.325 C 119.122 131.779,118.869 132.299,118.982 132.481 C 119.095 132.663,119.015 132.813,118.805 132.813 C 118.596 132.813,118.122 133.604,117.753 134.570 C 117.383 135.537,116.947 136.328,116.782 136.328 C 116.468 136.328,115.472 138.653,115.569 139.160 C 115.600 139.321,115.449 139.453,115.234 139.453 C 115.020 139.453,114.876 139.585,114.915 139.746 C 114.955 139.907,114.577 140.918,114.077 141.992 C 112.406 145.579,110.471 150.781,110.808 150.781 C 110.932 150.781,110.847 151.005,110.620 151.279 C 110.393 151.553,110.147 152.212,110.074 152.744 C 110.001 153.276,109.837 153.887,109.710 154.102 C 109.469 154.508,108.508 158.352,108.392 159.375 C 108.355 159.697,108.112 160.721,107.851 161.650 C 107.182 164.031,107.501 164.467,108.597 162.667 C 109.867 160.581,111.443 158.618,114.453 155.376 C 117.521 152.073,122.526 147.266,122.898 147.266 C 123.071 147.266,127.321 144.175,127.734 143.748 C 127.842 143.638,128.589 143.201,129.395 142.779 C 130.200 142.356,130.859 141.845,130.859 141.643 C 130.859 141.441,130.958 141.374,131.078 141.494 C 131.197 141.614,132.540 141.028,134.061 140.192 C 135.582 139.356,136.982 138.672,137.171 138.672 C 137.361 138.672,138.611 138.218,139.949 137.664 C 141.288 137.109,142.646 136.595,142.969 136.522 C 143.291 136.448,143.555 136.361,143.555 136.328 C 143.555 136.227,146.101 135.639,147.852 135.336 C 148.496 135.224,149.551 135.039,150.195 134.925 C 154.775 134.112,161.613 134.191,165.604 135.102 C 166.559 135.320,167.470 135.418,167.628 135.321 C 167.786 135.223,168.033 135.334,168.177 135.567 C 168.321 135.800,168.667 135.903,168.947 135.796 C 169.226 135.688,169.575 135.720,169.721 135.867 C 169.867 136.013,170.104 136.140,170.247 136.149 C 170.391 136.158,171.475 136.502,172.656 136.914 C 173.838 137.326,174.893 137.677,175.000 137.693 C 175.107 137.710,175.568 137.930,176.023 138.184 C 176.478 138.437,176.961 138.533,177.097 138.398 C 177.233 138.262,177.344 138.366,177.344 138.630 C 177.344 138.893,177.520 139.000,177.734 138.867 C 177.949 138.734,178.125 138.841,178.125 139.105 C 178.125 139.368,178.243 139.466,178.386 139.322 C 178.530 139.178,178.945 139.330,179.309 139.660 C 179.673 139.989,180.371 140.336,180.859 140.430 C 181.348 140.524,182.045 140.870,182.408 141.199 C 182.772 141.528,183.275 141.797,183.527 141.797 C 183.778 141.797,183.984 141.983,183.984 142.211 C 183.984 142.438,184.160 142.516,184.375 142.383 C 184.590 142.250,184.766 142.328,184.766 142.555 C 184.766 142.783,185.015 142.969,185.319 142.969 C 185.623 142.969,185.931 143.101,186.003 143.262 C 186.206 143.719,189.726 146.094,190.201 146.094 C 190.434 146.094,190.625 146.240,190.625 146.418 C 190.625 146.597,191.460 147.335,192.480 148.058 C 193.501 148.782,194.424 149.471,194.531 149.589 C 194.639 149.708,195.693 150.588,196.875 151.546 C 198.057 152.504,199.934 154.151,201.046 155.208 C 202.159 156.264,203.626 157.590,204.306 158.154 C 204.987 158.718,209.526 163.142,214.393 167.984 C 223.505 177.050,225.503 178.906,226.149 178.906 C 226.355 178.906,226.664 179.127,226.836 179.397 C 227.146 179.883,230.094 182.199,230.469 182.251 C 230.958 182.318,233.198 183.820,233.201 184.082 C 233.202 184.243,233.386 184.375,233.610 184.375 C 233.834 184.375,234.366 184.700,234.793 185.098 C 235.513 185.769,247.485 192.086,248.149 192.145 C 248.312 192.160,248.971 192.443,249.613 192.776 C 250.256 193.108,250.781 193.283,250.781 193.165 C 250.781 193.047,251.221 193.239,251.758 193.591 C 252.295 193.943,252.734 194.101,252.734 193.942 C 252.734 193.784,252.954 193.836,253.223 194.057 C 253.604 194.372,259.081 196.456,259.480 196.438 C 259.530 196.436,259.834 196.522,260.156 196.631 C 265.516 198.429,275.210 200.277,283.203 201.026 C 288.163 201.491,299.032 201.261,304.492 200.576 C 305.566 200.442,306.885 200.276,307.422 200.208 C 309.794 199.909,311.988 199.559,312.891 199.337 C 313.428 199.205,314.043 199.053,314.258 199.000 C 315.135 198.782,317.041 198.393,317.773 198.282 C 319.665 197.996,321.326 197.536,321.777 197.173 C 322.046 196.956,322.266 196.895,322.266 197.036 C 322.266 197.178,322.593 197.118,322.993 196.904 C 323.393 196.690,324.316 196.412,325.044 196.288 C 326.785 195.990,330.830 194.589,331.911 193.909 C 332.382 193.613,333.487 193.123,334.367 192.820 C 336.348 192.137,344.531 187.486,344.531 187.043 C 344.531 186.865,344.769 186.719,345.060 186.719 C 345.351 186.719,346.035 186.305,346.580 185.800 C 347.125 185.295,347.854 184.773,348.200 184.641 C 348.545 184.508,348.828 184.218,348.828 183.997 C 348.828 183.775,349.028 183.594,349.272 183.594 C 349.516 183.594,350.122 183.154,350.620 182.617 C 351.118 182.080,351.622 181.641,351.739 181.641 C 352.216 181.641,360.226 173.461,362.069 171.094 C 363.155 169.697,364.209 168.359,364.410 168.119 C 365.993 166.235,367.966 163.389,367.967 162.988 C 367.968 162.720,368.112 162.500,368.287 162.500 C 368.463 162.500,369.016 161.753,369.517 160.840 C 370.019 159.927,370.693 158.872,371.017 158.496 C 371.341 158.120,371.463 157.813,371.289 157.813 C 371.115 157.812,371.254 157.502,371.598 157.122 C 372.177 156.481,376.651 148.193,376.545 147.957 C 376.519 147.899,377.039 146.681,377.702 145.249 C 378.364 143.818,378.906 142.397,378.906 142.092 C 378.906 141.786,379.038 141.405,379.199 141.243 C 379.360 141.082,379.498 140.833,379.506 140.690 C 379.514 140.547,379.725 140.061,379.976 139.611 C 380.226 139.161,380.513 138.342,380.613 137.790 C 380.713 137.239,380.975 136.451,381.196 136.039 C 381.416 135.628,381.667 134.865,381.753 134.345 C 381.840 133.824,382.025 133.135,382.165 132.813 C 382.305 132.490,382.574 131.436,382.763 130.469 C 382.952 129.502,383.235 128.403,383.392 128.027 C 383.564 127.616,383.505 127.344,383.245 127.344 C 383.007 127.344,382.813 127.494,382.813 127.677 C 382.813 127.861,382.417 128.449,381.934 128.985 C 380.263 130.837,379.297 132.038,379.297 132.262 C 379.297 132.386,378.726 133.063,378.027 133.766 C 377.329 134.470,375.942 135.905,374.945 136.956 C 373.948 138.007,372.215 139.658,371.095 140.625 C 369.975 141.592,368.668 142.734,368.191 143.164 C 367.714 143.594,366.018 144.824,364.423 145.898 C 362.828 146.973,361.465 147.983,361.393 148.145 C 361.322 148.306,361.027 148.438,360.738 148.438 C 360.449 148.438,359.936 148.714,359.598 149.051 C 359.261 149.389,358.984 149.537,358.984 149.381 C 358.984 149.225,358.677 149.363,358.301 149.686 C 357.925 150.010,356.211 150.846,354.492 151.545 C 352.773 152.243,351.200 152.972,350.996 153.165 C 350.792 153.358,350.250 153.516,349.792 153.516 C 349.333 153.516,348.837 153.637,348.688 153.786 C 348.539 153.935,348.036 154.115,347.569 154.186 C 347.102 154.257,345.717 154.576,344.490 154.894 C 340.559 155.912,331.229 156.439,327.930 155.828 C 327.070 155.669,325.225 155.342,323.828 155.100 C 319.592 154.367,319.099 154.249,317.455 153.576 C 316.850 153.328,316.188 153.125,315.982 153.125 C 315.777 153.125,314.514 152.671,313.176 152.117 C 311.837 151.562,310.566 151.070,310.352 151.024 C 310.137 150.977,309.589 150.734,309.133 150.483 C 308.678 150.233,308.195 150.138,308.059 150.274 C 307.924 150.410,307.813 150.328,307.813 150.091 C 307.813 149.855,307.417 149.536,306.934 149.383 C 306.450 149.230,306.055 149.158,306.055 149.223 C 306.055 149.288,304.586 148.347,302.791 147.132 C 300.995 145.916,299.464 144.922,299.386 144.922 C 299.134 144.922,297.558 143.398,290.430 136.266 C 277.397 123.226,274.423 120.269,272.070 118.014 C 268.957 115.029,263.471 110.547,262.931 110.547 C 262.694 110.547,262.500 110.379,262.500 110.175 C 262.500 109.748,254.960 104.688,254.325 104.688 C 254.095 104.688,253.906 104.528,253.906 104.332 C 253.906 103.988,242.460 98.105,241.364 97.885 C 241.065 97.825,240.381 97.596,239.844 97.376 C 237.194 96.289,233.203 94.965,233.203 95.173 C 233.203 95.303,232.983 95.228,232.715 95.008 C 232.199 94.585,229.996 93.938,227.767 93.555 C 227.033 93.429,226.330 93.263,226.205 93.186 C 226.004 93.063,224.697 92.805,222.070 92.371 C 221.641 92.300,220.410 92.075,219.336 91.871 C 218.262 91.667,217.119 91.484,216.797 91.463 C 214.894 91.342,211.975 90.979,211.743 90.835 C 211.339 90.586,195.931 90.109,195.703 90.339 M105.467 200.121 C 105.359 200.236,103.249 200.434,100.779 200.562 C 98.310 200.689,95.674 200.862,94.922 200.946 C 94.170 201.029,92.434 201.220,91.064 201.371 C 88.999 201.597,85.087 202.351,78.906 203.714 C 78.369 203.832,77.666 204.038,77.344 204.172 C 77.021 204.305,76.406 204.477,75.977 204.554 C 75.255 204.684,74.518 204.921,72.461 205.686 C 72.031 205.846,71.410 206.031,71.080 206.098 C 70.751 206.165,69.696 206.567,68.737 206.991 C 67.777 207.415,66.904 207.731,66.797 207.693 C 66.689 207.655,65.790 208.100,64.798 208.681 C 63.805 209.263,62.882 209.627,62.747 209.492 C 62.611 209.356,62.500 209.421,62.500 209.635 C 62.500 209.850,62.273 210.026,61.995 210.026 C 60.736 210.026,48.532 217.749,48.112 218.811 C 48.040 218.992,47.797 219.141,47.571 219.141 C 47.345 219.141,46.753 219.580,46.255 220.117 C 45.757 220.654,45.234 221.094,45.092 221.094 C 44.951 221.094,42.813 223.159,40.343 225.684 C 34.702 231.447,34.375 231.802,34.375 232.143 C 34.375 232.296,34.067 232.761,33.691 233.175 C 32.868 234.083,32.636 234.382,30.723 237.012 C 29.902 238.140,29.377 239.065,29.557 239.068 C 29.736 239.072,29.680 239.204,29.433 239.361 C 28.843 239.738,25.274 245.755,25.266 246.387 C 25.263 246.655,25.104 246.875,24.912 246.875 C 24.720 246.875,24.672 247.051,24.805 247.266 C 24.937 247.480,24.850 247.656,24.609 247.656 C 24.369 247.656,24.281 247.832,24.414 248.047 C 24.547 248.262,24.469 248.438,24.242 248.438 C 24.014 248.438,23.856 248.569,23.890 248.730 C 23.924 248.892,23.468 250.043,22.876 251.289 C 22.284 252.534,21.757 253.765,21.703 254.023 C 21.650 254.281,21.229 255.337,20.769 256.369 C 19.982 258.131,18.987 261.210,18.520 263.325 C 18.179 264.866,18.032 265.430,17.969 265.430 C 17.936 265.430,17.849 265.693,17.777 266.016 C 17.704 266.338,17.378 267.656,17.053 268.945 C 16.132 272.595,15.901 274.243,16.465 273.145 C 16.713 272.661,17.065 272.266,17.247 272.266 C 17.429 272.266,17.578 272.017,17.578 271.712 C 17.578 271.408,17.739 271.100,17.935 271.029 C 18.131 270.957,19.105 269.844,20.100 268.555 C 22.355 265.631,27.802 260.076,30.435 258.016 C 31.528 257.160,32.422 256.325,32.422 256.160 C 32.422 255.995,32.609 255.859,32.839 255.859 C 33.293 255.859,36.052 253.892,36.263 253.418 C 36.335 253.257,36.642 253.125,36.947 253.125 C 37.251 253.125,37.500 252.939,37.500 252.711 C 37.500 252.484,37.656 252.394,37.846 252.512 C 38.037 252.629,38.410 252.464,38.675 252.144 C 38.941 251.824,39.400 251.563,39.696 251.563 C 39.992 251.563,40.235 251.431,40.236 251.270 C 40.237 251.108,41.291 250.537,42.578 250.000 C 43.865 249.463,44.919 248.892,44.920 248.730 C 44.921 248.569,45.238 248.438,45.625 248.438 C 46.012 248.438,46.495 248.292,46.699 248.115 C 46.903 247.937,47.861 247.554,48.828 247.263 C 49.795 246.972,50.806 246.569,51.074 246.366 C 51.343 246.164,51.563 246.083,51.563 246.188 C 51.563 246.292,52.925 246.042,54.590 245.633 C 59.150 244.512,59.874 244.437,66.211 244.429 C 72.481 244.422,74.028 244.547,76.173 245.236 C 76.924 245.478,77.979 245.754,78.516 245.851 C 79.053 245.948,80.195 246.327,81.055 246.693 C 81.914 247.058,82.617 247.326,82.617 247.286 C 82.617 247.101,84.389 247.845,86.368 248.861 C 87.572 249.479,88.671 249.871,88.810 249.732 C 88.949 249.593,89.063 249.640,89.063 249.837 C 89.063 250.034,90.250 250.811,91.700 251.563 C 93.150 252.314,94.395 253.062,94.466 253.223 C 94.538 253.384,94.845 253.516,95.150 253.516 C 95.454 253.516,95.703 253.691,95.703 253.906 C 95.703 254.121,95.967 254.297,96.289 254.297 C 96.611 254.297,96.876 254.429,96.878 254.590 C 96.879 254.751,97.538 255.316,98.343 255.845 C 100.196 257.064,103.257 259.396,105.273 261.125 C 106.133 261.862,107.275 262.832,107.813 263.279 C 109.568 264.742,114.495 269.472,123.438 278.278 C 128.271 283.038,132.898 287.456,133.719 288.095 C 134.540 288.735,135.708 289.653,136.315 290.137 C 136.921 290.620,137.612 291.016,137.849 291.016 C 138.087 291.016,138.282 291.147,138.284 291.309 C 138.287 291.674,141.070 293.585,141.436 293.473 C 141.583 293.427,142.016 293.735,142.397 294.156 C 142.778 294.577,143.266 294.922,143.481 294.922 C 143.696 294.922,144.459 295.370,145.178 295.918 C 145.896 296.466,146.487 296.774,146.490 296.602 C 146.494 296.430,146.625 296.486,146.783 296.726 C 147.122 297.242,151.235 299.410,151.660 299.297 C 151.821 299.254,151.953 299.424,151.953 299.674 C 151.953 299.925,152.061 300.023,152.192 299.891 C 152.324 299.760,153.375 300.185,154.529 300.836 C 155.683 301.487,156.850 302.059,157.122 302.106 C 157.395 302.153,158.146 302.472,158.792 302.815 C 159.439 303.157,160.317 303.499,160.745 303.574 C 161.173 303.650,161.619 303.838,161.736 303.994 C 161.852 304.150,162.380 304.356,162.908 304.453 C 163.435 304.550,163.911 304.664,163.965 304.707 C 164.019 304.750,164.194 304.822,164.355 304.868 C 164.517 304.913,164.942 305.080,165.302 305.240 C 165.661 305.399,166.188 305.577,166.473 305.635 C 166.759 305.694,167.286 305.869,167.645 306.026 C 168.004 306.182,168.532 306.358,168.817 306.416 C 169.102 306.475,169.600 306.632,169.922 306.766 C 170.244 306.899,171.035 307.111,171.680 307.236 C 173.225 307.535,173.399 307.582,175.000 308.118 C 175.752 308.369,177.070 308.678,177.930 308.803 C 178.789 308.929,179.844 309.098,180.273 309.178 C 187.813 310.592,187.394 310.544,197.461 311.141 C 201.558 311.384,211.068 310.800,216.016 310.001 C 216.553 309.915,217.695 309.738,218.555 309.608 C 220.816 309.268,224.180 308.600,225.942 308.141 C 226.782 307.922,227.749 307.676,228.090 307.594 C 228.432 307.512,229.414 307.257,230.273 307.027 C 231.133 306.798,232.100 306.542,232.422 306.460 C 232.744 306.377,233.096 306.276,233.203 306.234 C 233.311 306.192,233.549 306.184,233.733 306.217 C 233.916 306.250,234.268 306.117,234.514 305.921 C 234.760 305.726,236.279 305.159,237.891 304.662 C 239.502 304.165,240.949 303.572,241.107 303.344 C 241.265 303.116,241.397 303.066,241.400 303.233 C 241.404 303.399,241.932 303.264,242.574 302.932 C 243.216 302.600,243.856 302.346,243.995 302.369 C 244.135 302.392,244.356 302.264,244.488 302.084 C 244.619 301.905,245.781 301.240,247.070 300.607 C 249.894 299.221,255.245 295.779,256.758 294.375 C 257.360 293.816,258.009 293.359,258.199 293.359 C 258.506 293.359,268.547 283.457,270.280 281.445 C 272.035 279.408,275.000 275.365,275.000 275.008 C 275.000 274.789,275.154 274.609,275.343 274.609 C 275.532 274.609,275.905 274.082,276.172 273.438 C 276.439 272.793,276.812 272.266,277.001 272.266 C 277.189 272.266,277.344 272.029,277.344 271.740 C 277.344 271.451,277.651 270.932,278.027 270.587 C 278.403 270.242,279.326 268.765,280.078 267.304 C 280.830 265.843,281.555 264.561,281.689 264.453 C 281.956 264.240,285.552 257.156,285.554 256.840 C 285.555 256.732,285.989 255.698,286.518 254.541 C 287.777 251.788,290.164 245.180,290.386 243.832 C 290.482 243.250,290.597 242.729,290.642 242.676 C 290.686 242.622,290.760 242.446,290.805 242.285 C 290.851 242.124,290.996 241.729,291.129 241.406 C 291.261 241.084,291.448 240.293,291.545 239.648 C 291.642 239.004,291.854 238.145,292.016 237.740 C 292.530 236.459,291.563 237.197,289.979 239.295 C 286.502 243.902,283.347 247.267,278.845 251.172 C 277.978 251.924,276.934 252.847,276.525 253.223 C 276.116 253.599,275.645 253.906,275.478 253.906 C 275.311 253.906,274.644 254.390,273.996 254.980 C 273.349 255.571,272.343 256.271,271.761 256.535 C 271.179 256.799,270.703 257.204,270.703 257.437 C 270.703 257.669,270.554 257.766,270.372 257.654 C 270.189 257.541,269.706 257.760,269.297 258.141 C 268.889 258.521,268.424 258.868,268.263 258.912 C 267.407 259.143,262.653 261.581,262.408 261.914 C 262.250 262.129,262.119 262.167,262.115 261.998 C 262.112 261.829,261.714 261.909,261.230 262.175 C 260.747 262.440,260.176 262.695,259.961 262.742 C 259.746 262.788,258.428 263.206,257.031 263.670 C 255.635 264.134,254.141 264.575,253.711 264.648 C 253.281 264.722,252.490 264.887,251.953 265.016 C 247.933 265.980,234.824 266.041,233.305 265.102 C 233.123 264.990,232.279 264.818,231.429 264.719 C 230.127 264.569,224.243 262.954,222.266 262.204 C 221.943 262.082,221.592 261.960,221.484 261.934 C 221.377 261.908,220.938 261.690,220.508 261.450 C 220.078 261.211,219.551 260.975,219.336 260.926 C 219.121 260.877,218.034 260.421,216.920 259.911 C 215.805 259.401,214.807 258.984,214.701 258.984 C 214.595 258.984,213.450 258.281,212.156 257.422 C 210.862 256.563,209.695 255.859,209.561 255.859 C 209.428 255.859,209.090 255.640,208.810 255.371 C 208.530 255.103,207.191 253.916,205.834 252.734 C 204.476 251.553,200.631 247.787,197.288 244.367 C 183.354 230.107,175.767 222.929,172.585 220.993 C 171.945 220.604,170.954 219.852,170.383 219.322 C 169.811 218.793,169.219 218.359,169.067 218.359 C 168.915 218.359,168.352 217.953,167.816 217.456 C 167.280 216.960,166.177 216.213,165.365 215.796 C 164.553 215.380,163.558 214.745,163.153 214.386 C 162.749 214.027,161.865 213.509,161.189 213.236 C 160.514 212.963,159.873 212.620,159.766 212.474 C 159.551 212.181,153.250 208.971,152.927 208.989 C 152.817 208.995,152.201 208.728,151.558 208.396 C 150.916 208.064,150.391 207.889,150.391 208.007 C 150.391 208.125,149.981 207.953,149.481 207.625 C 148.980 207.297,148.453 207.146,148.309 207.290 C 148.165 207.434,148.047 207.385,148.047 207.182 C 148.047 206.858,145.082 205.769,144.250 205.786 C 144.082 205.790,143.770 205.656,143.555 205.490 C 143.095 205.133,138.212 203.662,136.523 203.372 C 135.879 203.262,134.912 203.057,134.375 202.918 C 133.838 202.778,133.135 202.618,132.813 202.561 C 132.490 202.503,131.787 202.350,131.250 202.219 C 130.713 202.089,129.395 201.868,128.320 201.728 C 127.246 201.588,126.016 201.423,125.586 201.361 C 120.641 200.650,118.395 200.390,117.578 200.434 C 117.041 200.463,114.141 200.357,111.133 200.200 C 108.125 200.042,105.575 200.007,105.467 200.121 " stroke="none" fill="#04b4d4" fill-rule="evenodd"></path><path id="path1" d="" stroke="none" fill="#04bcd4" fill-rule="evenodd"></path><path id="path2" d="" stroke="none" fill="#08b4d4" fill-rule="evenodd"></path><path id="path3" d="" stroke="none" fill="#04b4dc" fill-rule="evenodd"></path><path id="path4" d="" stroke="none" fill="#08b4d4" fill-rule="evenodd"></path></g></svg>