<?xml version="1.0" standalone="yes"?>
<svg xmlns="http://www.w3.org/2000/svg" width="9001" height="12001">
    <path fill="currentColor"
        d="M5452 920L5412 838C5399.87 841.569 5390.68 853.279 5383.38 863C5364.33 888.346 5351.75 919.03 5342 949C5305.11 920.647 5262.98 897.096 5223 873.396C5143.07 826.011 5059.14 781.528 4969 757.151C4935.42 748.069 4898.54 742.099 4864 748.611C4852.27 750.823 4833.68 755.345 4828 767C4854.2 775.922 4874.87 801.089 4891.6 822C4930.78 870.959 4969.39 927.018 4996 984C4896.63 884.64 4757.71 809.514 4620 781.003C4585.95 773.953 4549.81 768.057 4515 768C4507.8 767.988 4483.09 765.775 4481.62 776.043C4480.17 786.187 4499.92 794.86 4507 798.691C4518.2 804.747 4530.64 807.59 4542 813.271C4561.21 822.874 4578.54 837.729 4591.27 855C4639.73 920.78 4636.31 1003.93 4633 1081C4591.03 1075.58 4555.21 1080.65 4517 1099.75C4504.99 1105.76 4490.01 1112.86 4481 1123L4480 1123C4461.99 1090.67 4435.85 1061.32 4411.17 1034C4330.53 944.724 4224.77 879.589 4111 841.667C4004.85 806.282 3894.51 792 3783 792C3560.57 792 3319.25 841.776 3155 1002.01C3118.45 1037.68 3086.68 1079.39 3060.2 1123C2939.36 1322.06 2924.51 1563.73 2940.09 1790C2944.41 1852.71 2954.48 1915.09 2965.25 1977C2968.34 1994.77 2972.4 2012.38 2976.21 2030C2977.59 2036.4 2982.06 2046.09 2980.72 2052.58C2978.01 2065.68 2964.7 2081.35 2958 2093C2941.63 2121.48 2925.79 2150.28 2909.86 2179C2859.43 2269.93 2810.75 2362 2764.25 2455C2601.39 2780.71 2442.31 3121.66 2417.09 3490C2406.21 3648.86 2429.82 3808.26 2476.97 3960C2495.63 4020.04 2518.11 4079.72 2546.25 4136C2571.28 4186.06 2599.96 4239.61 2645 4274.57C2663.91 4289.25 2693.43 4304.19 2717 4291.09C2731.87 4282.83 2729.64 4263.29 2727.72 4249C2722.73 4211.96 2707.19 4175.82 2694.32 4141C2670.63 4076.94 2636.81 4010.92 2632.09 3942C2627.46 3874.35 2647.34 3804.07 2672.6 3742C2682.03 3718.83 2698.02 3695.73 2705 3672L2706 3672C2708.02 3696.67 2720.05 3723.79 2728.31 3747C2745.08 3794.14 2763.78 3840.29 2784.14 3886C2831.72 3992.85 2888.43 4095.76 2948.6 4196C2984.61 4255.99 3020.58 4318.94 3065.25 4373C3108.42 4425.25 3163.68 4472.67 3230 4491.71C3250.84 4497.69 3286.79 4505.48 3305.98 4491.36C3316.17 4483.87 3313.29 4469.27 3309.56 4459C3300.35 4433.63 3282.86 4411 3266.34 4390C3249.23 4368.26 3230.55 4347.55 3211 4328C3196.27 4313.27 3178.92 4299.22 3171.7 4279C3163.96 4257.34 3169.37 4234 3179.37 4214C3185.63 4201.49 3193.74 4189.79 3202.61 4179C3218.18 4160.09 3240.3 4150.97 3261 4138.55C3291.6 4120.19 3321.82 4100.5 3350 4078.58C3457.63 3994.85 3549.17 3891.79 3606.31 3767C3618.24 3740.95 3628.52 3714.36 3637.03 3687C3641.45 3672.76 3647.35 3656.99 3648 3642L3649 3642C3649 3686.75 3657.36 3732.48 3667.35 3776C3695.74 3899.72 3755.64 4013.33 3833.42 4113C3855.84 4141.73 3880.34 4169.02 3906.29 4194.58C3919.96 4208.04 3938.71 4220.67 3950 4236C3939.39 4237.83 3928.89 4243.43 3919 4247.58C3900.13 4255.49 3881.31 4263.6 3863 4272.75C3803.81 4302.35 3747.43 4335.28 3693 4372.98C3497.95 4508.04 3340.4 4698.69 3219 4901C3190.38 4948.69 3163.62 4997.26 3138.75 5047C3127.17 5070.16 3111.01 5095.71 3105 5121C3113.86 5114.22 3120.99 5103.91 3129 5096C3140.71 5084.43 3153.93 5074.21 3167 5064.23C3224.97 5019.99 3290.15 4987.23 3354 4952.69C3376.57 4940.49 3399.92 4929.91 3423 4918.74C3439.01 4911 3455.9 4900.93 3473 4896C3436.54 4931.7 3399.41 4964.61 3368.88 5006C3277.45 5130 3237 5281.34 3237 5434C3237 5471.63 3239.37 5508.64 3243.84 5546C3246.21 5565.78 3247.98 5588.27 3255 5607C3260.24 5600 3262.23 5589.86 3266.26 5582C3274.11 5566.69 3283.49 5552.04 3293.42 5538C3327.88 5489.3 3368.9 5445.1 3411 5403C3432.7 5381.3 3454.19 5358.39 3478 5339C3465.66 5365.44 3452.13 5390.43 3442.05 5418C3415.49 5490.71 3400.53 5567.84 3387.92 5644C3369.22 5756.88 3357.72 5871.04 3349.91 5985C3330.84 6263.26 3325.68 6542.57 3329 6822C3330.15 6918.63 3336 7015.44 3336 7112C3279.77 7055.76 3213.11 7006.67 3145 6965.8C3080.81 6927.29 3012.57 6895.27 2941 6873.03C2620.24 6773.34 2285.67 6877.03 2012 7053.31C1936.47 7101.96 1865.06 7156.27 1797 7214.87C1776.4 7232.6 1756.45 7251.01 1737 7269.99C1728.4 7278.38 1718.46 7285.68 1712 7296C1724.94 7289.98 1736.62 7277.4 1749 7269.68C1770.73 7256.15 1795.01 7245.86 1819 7237.05C1945.45 7190.65 2078.69 7179.73 2211 7163L2211 7164C2194.54 7169.21 2178.3 7183.13 2164 7192.67C2127.31 7217.12 2092.76 7244.35 2060 7273.83C1930.25 7390.61 1845.81 7551.84 1829.17 7726C1824.62 7773.64 1828.26 7819.55 1832 7867C1835.56 7864.33 1836.25 7859.05 1837.81 7855C1841.33 7845.9 1845.01 7836.79 1849.26 7828C1862.78 7800.06 1879.41 7773.66 1898.23 7749C1956.13 7673.16 2031.9 7609.82 2113 7560C2112.92 7587.23 2109.23 7614.77 2108.04 7642C2104.59 7720.91 2106.7 7801.3 2112.09 7880C2144.74 8356.92 2233.43 8828.64 2332.79 9296C2353.26 9392.29 2375.41 9488.22 2398.12 9584C2412.87 9646.26 2423.43 9712.42 2462.48 9765C2506.13 9823.79 2573.51 9857.84 2643 9876.12C2799.67 9917.31 2968.14 9901.17 3127 9884.17C3394.19 9855.56 3657.66 9798.75 3924 9763.72C4054.89 9746.5 4189.74 9735.81 4321 9754.73C4391.94 9764.95 4465.31 9783.78 4522 9829.8C4538.5 9843.2 4553.53 9860.7 4562.68 9880C4566.66 9888.39 4567.91 9897.52 4571.34 9906C4600.15 9977.04 4601.75 10056.7 4585.42 10131C4558.18 10255 4488.92 10364.2 4405.17 10458C4368.09 10499.5 4329.52 10541.9 4280 10568.7C4227.4 10597.1 4166.18 10608.4 4107 10611C4039.76 10613.9 3971.82 10604.6 3906 10591.4C3792.57 10568.7 3682.5 10531.4 3575 10489.2C3249.2 10361.2 2941.65 10185.1 2643 10003.8C2571.66 9960.49 2500.57 9916.74 2429 9873.8C2372.82 9840.09 2317.5 9805.82 2256 9782.42C2072.75 9712.72 1873.13 9717.27 1683 9751.58C1637.81 9759.73 1593.14 9770.99 1549 9783.58C1523.43 9790.87 1496.13 9797.72 1472 9809L1472 9810C1568.62 9802.37 1662.09 9822.49 1751 9860.43C1772.4 9869.56 1793.65 9879.58 1814 9890.86C1826.89 9898 1839.5 9907.18 1853 9913L1853 9914C1792.41 9899.08 1723.8 9898.68 1662 9902.91C1454.17 9917.14 1259.36 9997.43 1087 10112.3C1038.81 10144.5 992.243 10179.2 948 10216.6C928.864 10232.7 904.497 10249.4 890 10270C904.68 10265.8 918.81 10256.9 933 10251C960.644 10239.6 989.745 10230.4 1019 10224.2C1093.27 10208.4 1170.58 10207.5 1245 10223.2C1276.9 10230 1306.64 10243.6 1338 10251C1309.73 10279 1279.94 10305.4 1253.17 10335C1187.69 10407.4 1132.02 10487.3 1087.26 10574C985.572 10771 959.777 10998.3 985.845 11216C996.354 11303.8 1016.15 11392.4 1048 11475L1049 11475C1048.71 11460.8 1045.03 11446.2 1043.28 11432C1040.11 11406.2 1037.65 11379.9 1037.01 11354C1033.55 11212.7 1074.05 11055.5 1209 10984.7C1237.91 10969.6 1269.38 10957.1 1302 10953C1302 11111.3 1305.31 11279.7 1368.58 11428C1385.71 11468.1 1408.48 11508.5 1442 11537.3C1454.78 11548.2 1471.55 11561.5 1489 11563C1481.76 11546.2 1473.51 11530.6 1468.03 11513C1452.9 11464.3 1447.73 11413.4 1442.83 11363C1435.16 11284.1 1436.71 11207.8 1463.69 11132C1526.87 10954.5 1682.5 10830.6 1845 10746.7C1879.22 10729.1 1914.22 10713.1 1950 10698.8C1968.77 10691.3 1988.27 10682.6 2008 10678L2030 10723C2047.35 10712.2 2062.58 10700.8 2082 10693.4C2158.57 10664.5 2246.15 10673.4 2325 10686.6C2503.77 10716.6 2677.93 10786.6 2842 10861.7C2982.87 10926.2 3119.71 10998.2 3266 11050.3C3494.2 11131.5 3731.97 11170.5 3973 11181C4055.76 11184.7 4138.56 11180.9 4221 11175.1C4248.4 11173.2 4275.75 11169.9 4303 11166.3C4317.68 11164.4 4333.86 11163.5 4348 11159C4334.74 11199.7 4300.98 11231.5 4269 11258.2C4204.03 11312.6 4129.12 11357 4054 11395.7C4026.17 11410.1 3998.02 11423.8 3970 11437.8C3961.53 11442 3944.2 11446.1 3939 11454C3969.46 11454.6 4000.56 11459.8 4031 11461.9C4078.62 11465.2 4127.58 11462.6 4175 11457.8C4402.19 11435.1 4603.85 11324.1 4761.99 11162C4808.01 11114.8 4849.59 11062.2 4886.97 11008C4907.39 10978.4 4924.47 10944.2 4948 10917C4951.62 10945.6 4945.57 10976.5 4942.16 11005C4936.12 11055.4 4929.36 11105.8 4921.58 11156C4917.29 11183.6 4909.58 11213.1 4909 11241L4910 11241C4968.93 11161.5 5026.77 11082.5 5076.99 10997C5210.55 10769.6 5306.06 10521.6 5376.58 10268C5407.66 10156.2 5432.51 10042.8 5463.58 9931C5474.94 9890.11 5483.5 9842.75 5509.16 9808C5521.55 9791.2 5538.37 9778.01 5556 9767.06C5614.08 9731.01 5687.22 9717.17 5754 9707.87C5862.66 9692.73 5971.67 9688.75 6081 9683.96C6136.64 9681.53 6192.43 9679.71 6248 9675.91C6304.43 9672.05 6360.24 9666.62 6417 9668.01C6638.49 9673.44 6860.78 9706.98 7080 9739.27C7169.36 9752.43 7258.64 9766.11 7348 9779.27C7415.32 9789.19 7483.01 9800.99 7551 9803.96C7604.05 9806.28 7657.36 9801.8 7710 9796.17C7756.53 9791.18 7806.28 9785.94 7851 9771.66C7883.67 9761.22 7914.89 9745.71 7942 9724.58C7982.11 9693.31 8010.73 9651.03 8033.25 9606C8068.09 9536.32 8090.57 9458.89 8107.42 9383C8112.91 9358.3 8118.97 9333.72 8124.42 9309C8133.16 9269.44 8141.26 9229.73 8149.2 9190C8197.7 8947.46 8252.38 8705.74 8288.57 8461C8336.75 8135.16 8356 7804.97 8356 7476C8389.2 7476.69 8421.25 7502.05 8445 7522.72C8505.69 7575.53 8552.47 7645.03 8594.58 7713C8604.36 7728.79 8613.65 7744.87 8622.85 7761C8627.04 7768.35 8630.56 7778.47 8637 7784C8637 7721.51 8636.18 7659.89 8626.58 7598C8603.13 7446.84 8537.63 7306.63 8429 7198C8395.05 7164.05 8356.78 7134.83 8316 7109.58C8298.76 7098.9 8277.88 7084.72 8258 7080L8258 7079C8282.29 7078.93 8306.57 7075.42 8331 7077.09C8414.15 7082.78 8495.83 7103.49 8574 7132.05C8610.54 7145.41 8646.64 7160.08 8682 7176.31C8699.57 7184.37 8717.47 7196.66 8736 7202C8728.92 7191.94 8718.09 7184.04 8709 7175.83C8691.48 7160.01 8673.89 7144.27 8656 7128.87C8592.42 7074.14 8525.82 7022.54 8456 6976C8234.38 6828.26 7971.57 6723.31 7701 6749.17C7640.73 6754.93 7581 6766.25 7523 6783.72C7456.92 6803.62 7392.86 6831.26 7333 6865.58C7260.71 6907.02 7195.88 6957.12 7137 7016C7137 6921.45 7142.87 6826.63 7144 6732C7147.32 6452.57 7140.05 6172.82 7113.17 5895C7095.91 5716.62 7072.7 5536.12 7024.58 5363C7013.88 5324.54 6999.83 5287.69 6987 5250C7022.82 5267.49 7051.04 5303.21 7076.42 5333C7109.76 5372.13 7141.39 5412.63 7171.88 5454C7186.28 5473.53 7203.18 5492.79 7215 5514L7217 5514C7229.41 5466.03 7231.89 5415.16 7234.04 5366C7241.18 5202.91 7190.15 5038.09 7089.58 4909C7060.85 4872.13 7028.12 4840.58 6993 4810C7099.02 4840.09 7198.08 4896.52 7282 4967.42C7304.07 4986.07 7324.99 5006.12 7344.96 5027C7354.3 5036.77 7362.31 5049.82 7373 5058C7371.39 5048.96 7365.33 5040.17 7361.25 5032C7352.68 5014.87 7343.72 4997.93 7334.78 4981C7303.24 4921.22 7269.98 4862.29 7234.05 4805C7106.12 4601.02 6948.64 4407.58 6749 4269.97C6700.67 4236.66 6650.4 4206.2 6597 4181.69C6572.67 4170.52 6544.79 4155.61 6518 4152L6518 4151C6532.47 4144.37 6545.44 4128.85 6557 4118.09C6584.68 4092.32 6609.98 4064.54 6633.6 4035C6712.32 3936.56 6765.91 3817.86 6796.37 3696C6807.47 3651.61 6819.97 3603 6820 3557L6821 3557C6826.37 3596.9 6845.09 3639.1 6860.58 3676C6911.63 3797.65 6990.09 3906.48 7095 3987.35C7129.63 4014.04 7166.54 4037.89 7205 4058.69C7228.32 4071.31 7259.69 4081.65 7276.48 4103C7296.12 4127.96 7294.31 4163.61 7288.4 4193C7286.66 4201.65 7285.3 4214.39 7280.16 4221.71C7272.02 4233.29 7257.35 4242.45 7247 4252.09C7227.53 4270.23 7208.44 4289.55 7191.41 4310C7176.33 4328.12 7159.62 4348.7 7153.63 4372C7151.55 4380.09 7149.66 4393.04 7156.39 4399.58C7160.63 4403.69 7168.48 4404.55 7174 4405.87C7191.6 4410.09 7210.22 4410.02 7228 4407.08C7299.06 4395.33 7357.72 4337.47 7402.42 4285C7520.16 4146.82 7602.63 3976.5 7674.42 3811C7695.39 3762.68 7715.78 3714.12 7734.81 3665C7744.37 3640.32 7757.03 3614.81 7763 3589C7784.96 3614.77 7798.43 3650.28 7809 3682C7847.76 3798.31 7823.37 3924.3 7788.03 4038C7775.3 4078.95 7752.51 4119.05 7744 4161C7740.68 4177.39 7741.2 4200.46 7759 4208.58C7764.8 4211.23 7772.1 4209.4 7778 4207.84C7792.88 4203.92 7807.15 4197.04 7820 4188.66C7870.67 4155.58 7904.32 4104.98 7933.14 4053C7978.58 3971.04 8003.84 3876.08 8023.21 3785C8050.43 3657 8069.87 3523.89 8060.91 3393C8049.92 3232.47 8007.96 3073.56 7955.34 2922C7886.36 2723.28 7800.37 2530.01 7702.22 2344C7657.79 2259.81 7612.61 2175.79 7563.8 2094C7546.67 2065.29 7529.65 2036.51 7512.19 2008C7504.92 1996.13 7492.53 1982.56 7488.39 1969.29C7486.36 1962.8 7491.28 1951.54 7492.6 1945L7504.6 1885C7517.5 1820.39 7527.38 1753.71 7531.91 1688C7549.26 1436.21 7523.24 1167.32 7352.57 967C7262.99 861.857 7141.22 787.054 7009 748.424C6955.75 732.867 6901.39 726.38 6847 716.575C6673.39 685.281 6485.35 681.454 6318 744.576C6212.13 784.512 6115.07 849.887 6046.63 941C6025.32 969.357 5997.36 1004.81 5989 1040C5949.82 1006.61 5887.15 984.775 5836 998C5835.93 971.694 5832.88 945.459 5834.04 919C5836.52 862.237 5852.49 803.312 5892.09 761.001C5909.56 742.333 5932.62 729.618 5954 716.053C5963.79 709.84 5976.86 703.245 5984 694C5971.35 689.999 5957.12 689.81 5944 688.91C5904.07 686.175 5863.84 690.918 5825 700.627C5724.54 725.741 5631.47 778.791 5549 840.374C5527.16 856.685 5505.75 873.582 5485 891.271C5474.01 900.642 5463.81 911.717 5452 920z" />
    <path style="fill:#ffffff; stroke:none;"
        d="M4996 984L4997 985L4996 984M6991 4809L6992 4810L6991 4809M3475 4894L3473 4895L3473 4896L3475 4894M3479 5337L3478 5339L3479 5337z" />
</svg>